<svg
  xmlns="http://www.w3.org/2000/svg"
  xmlns:xlink="http://www.w3.org/1999/xlink"
  width="16"
  height="16"
  viewBox="0 0 512 512"
>
  <defs>
    <style>
      .linkplaces-icon {
        /* see https://design.firefox.com/photon/visuals/iconography.html */
        fill: rgba(12, 12, 13, 0.8);
        fill-rule: evenodd;
      }
    </style>
    <symbol id="icon">
      <path
        class="linkplaces-icon"
        fill="context-fill"
        d="M112.9 0h288.368c16.823 0 30.46 19.99 30.46 44.65v422.7c0 24.66-13.637 44.652-30.46 44.652H112.9c-16.823 0-30.46-19.99-30.46-44.65V44.65C82.44 19.99 96.08 0 112.9 0zm25.34 317.44h137.285v35.84H138.24v-35.84zm0-61.44h221.9v30.72h-221.9V256zm.017-128h189.42v30.72h-189.42V128zm-.034 61.44h174.1v35.84h-174.1v-35.84zm-.012-126.525h221.926V97.28H138.21V62.915zM138.24 384h225.28v30.72H138.24V384z"/>
    </symbol>
  </defs>
  <g id="default">
    <use xlink:href="#icon"/>
  </g>
</svg>
